# AST/ASF file generated using VICON BodyLanguage
# -----------------------------------------------
:version 1.10
:name VICON
:units
  mass 1.0
  length 0.45
  angle deg
:documentation
   .ast/.asf automatically generated from VICON data using
   VICON BodyBuilder and BodyLanguage model FoxedUp or BRILLIANT.MOD
:root
   order TX TY TZ RX RY RZ
   axis XYZ
   position 0 0 0  
   orientation 0 0 0 
:bonedata
  begin
     id 1 
     name lhipjoint
     direction 0.604623 -0.733026 0.311616 
     length 2.56391 
     axis 0 0 0  XYZ
  end
  begin
     id 2 
     name lfemur
     direction 0.34202 -0.939693 0  
     length 7.75596  
     axis 0 0 20  XYZ
    dof rx ry rz
    limits (-160.0 20.0)
           (-70.0 70.0)
           (-60.0 70.0)
  end
  begin
     id 3 
     name ltibia
     direction 0.34202 -0.939693 0   
     length 7.63697   
     axis 0 0 20   XYZ
    dof rx
    limits (-10.0 170.0)
  end
  begin
     id 4 
     name lfoot
     direction 0.048038 -0.131983 0.990087   
     length 1.94388   
     axis -90 7.62852e-016 20   XYZ
    dof rx rz
    limits (-45.0 90.0)
           (-70.0 20.0)
  end
  begin
     id 5 
     name ltoes
     direction 1.53565e-011 -4.21929e-011 1   
     length 0.984801   
     axis -90 7.62852e-016 20   XYZ
    dof rx
    limits (-90.0 20.0)
  end
  begin
     id 6 
     name rhipjoint
     direction -0.609162 -0.729836 0.31026   
     length 2.57511  
     axis 0 0 0  XYZ 
  end
  begin
     id 7 
     name rfemur
     direction -0.34202 -0.939693 0   
     length 7.60772   
     axis 0 0 -20   XYZ
    dof rx ry rz
    limits (-160.0 20.0)
           (-70.0 70.0)
           (-70.0 60.0)
  end
  begin
     id 8 
     name rtibia
     direction -0.34202 -0.939693 0   
     length 7.68497   
     axis 0 0 -20   XYZ
    dof rx
    limits (-10.0 170.0)
 end
 begin
     id 9 
     name rfoot
     direction -0.0969806 -0.266452 0.958957   
     length 2.01398  
     axis -90 -7.62852e-016 -20   XYZ
    dof rx rz
    limits (-45.0 90.0)
           (-20.0 70.0)
  end
  begin
     id 10 
     name rtoes
     direction -1.53552e-011 -4.21869e-011 1   
     length 1.00896   
     axis -90 -7.62852e-016 -20   XYZ
    dof rx
    limits (-90.0 20.0)
  end
  begin
     id 11 
     name lowerback
     direction 0.0305179 0.993923 -0.10576   
     length 2.09077   
     axis 0 0 0   XYZ
    dof rx ry rz
    limits (-20.0 45.0)
           (-30.0 30.0)
           (-30.0 30.0)
  end
  begin
     id 12 
     name upperback
     direction -0.0137909 0.999867 0.00873764   
     length 2.08918   
     axis 0 0 0   XYZ
    dof rx ry rz
    limits (-20.0 45.0)
           (-30.0 30.0)
           (-30.0 30.0)
  end
  begin
     id 13 
     name thorax
     direction -0.0278536 0.997917 0.0581839   
     length 2.11939   
     axis 0 0 0   XYZ
    dof rx ry rz
    limits (-20.0 45.0)
           (-30.0 30.0)
           (-30.0 30.0)
  end
  begin
     id 14 
     name lowerneck
     direction 0.0138689 0.999837 -0.0116016   
     length 1.74353   
     axis 0 0 0   XYZ
    dof rx ry rz
    limits (-20.0 45.0)
           (-30.0 30.0)
           (-30.0 30.0)
  end
  begin
     id 15 
     name upperneck
     direction -0.00992078 0.999667 0.0238149   
     length 1.71734   
     axis 0 0 0   XYZ
    dof rx ry rz
    limits (-20.0 45.0)
           (-30.0 30.0)
           (-30.0 30.0)
  end
  begin
     id 16
     name head
     direction -0.00530555 0.999941 0.00944937  
     length 1.78249  
     axis 0 0 0   XYZ
    dof rx ry rz
    limits (-20.0 45.0)
           (-30.0 30.0)
           (-30.0 30.0)
  end
  begin
     id 17 
     name lclavicle
     direction 0.929165 0.366864 0.0454227  
     length 3.65686  
     axis 0 0 0   XYZ
    dof ry rz
    limits (-20.0 10.0)
           (0.0 20.0)
  end
  begin
     id 18 
     name lhumerus
     direction 1 -4.4897e-011 3.05413e-018   
     length 5.15218   
     axis -180 -30 -90   XYZ
    dof rx ry rz
    limits (-60.0 90.0)
           (-90.0 90.0)
           (-90.0 90.0)
  end
  begin
     id 19
     name lradius
     direction 1 -4.48963e-011 5.40022e-027   
     length 3.49459   
     axis -180 -30 -90   XYZ
    dof rx
    limits (-10.0 170.0)
  end
  begin
     id 20
     name lwrist
     direction 1 -4.48966e-011 9.79369e-027   
     length 1.7473   
     axis -4.67603e-015 90 90   XYZ
    dof ry
    limits (-180.0 0.0)
 end
  begin
     id 21 
     name lhand
     direction 1 -4.48996e-011 1.9593e-026   
     length 0.512466   
     axis -1.24987e-014 90 90   XYZ
    dof rx rz
    limits (-90.0 90.0)
           (-45.0 45.0)
  end
  begin
     id 22 
     name lfingers
     direction 1 -4.48931e-011 3.91616e-026   
     length 0.413163   
     axis -2.49979e-014 90 90   XYZ
    dof rx
    limits (0.0 90.0)
  end
  begin
     id 23
     name lthumb
     direction 0.707107 -6.34959e-011 0.707107   
     length 0.593222   
     axis -90 45 5.69224e-014   XYZ
    dof rx rz
    limits (-45.0 45.0)
           (-45.0 45.0)
  end
  begin
     id 24 
     name rclavicle
     direction -0.951469 0.307727 0.00346571   
     length 3.42864  
     axis 0 0 0   XYZ 
    dof ry rz
    limits (-10.0 20.0)
           (-20.0 0.0)
  end
  begin
     id 25 
     name rhumerus
     direction -1 -4.48967e-011 2.58643e-027  
     length 5.44344   
     axis -180 30 90   XYZ
    dof rx ry rz
    limits (-90.0 60.0)
           (-90.0 90.0)
           (-90.0 90.0)
  end
  begin
     id 26 
     name rradius
     direction -1 -4.48973e-011 4.26485e-028   
     length 3.58403   
     axis -180 30 90   XYZ
    dof rx
    limits (-10.0 170.0)
  end
  begin
     id 27 
     name rwrist
     direction -1 -4.48962e-011 9.79331e-027   
     length 1.79202   
     axis -4.67603e-015 -90 -90   XYZ
    dof ry
    limits (-180.0 0.0)
  end
  begin
     id 28
     name rhand
     direction -1 -4.48975e-011 1.95891e-026   
     length 0.34249   
     axis -1.24987e-014 -90 -90   XYZ
    dof rx rz
    limits (-90.0 90.0)
           (-45.0 45.0)
  end
  begin
     id 29
     name rfingers
     direction -1 -4.48893e-011 3.9147e-026   
     length 0.276124   
     axis -2.49979e-014 -90 -90   XYZ
    dof rx
    limits (0.0 90.0)
  end
  begin
     id 30
     name rthumb
     direction -0.707107 -6.34898e-011 0.707107   
     length 0.39646   
     axis -90 -45 -5.69224e-014   XYZ
    dof rx rz
    limits (-45.0 45.0)
           (-45.0 45.0)
  end
:hierarchy
  begin
    root lhipjoint rhipjoint lowerback
    lhipjoint lfemur
    lfemur ltibia
    ltibia lfoot
    lfoot ltoes
    rhipjoint rfemur
    rfemur rtibia
    rtibia rfoot
    rfoot rtoes
    lowerback upperback
    upperback thorax
    thorax lowerneck lclavicle rclavicle
    lowerneck upperneck
    upperneck head
    lclavicle lhumerus
    lhumerus lradius
    lradius lwrist
    lwrist lhand lthumb
    lhand lfingers
    rclavicle rhumerus
    rhumerus rradius
    rradius rwrist
    rwrist rhand rthumb
    rhand rfingers
  end

#!OML:ASF H:\charlestonDancing\Project 1\Capture day 1\Session 1\femaleDancer.ASF
:FULLY-SPECIFIED
:DEGREES
356
root -12.7264 17.9344 -2.09858 -181.962 118.507 -546.159
lowerback 7.94673 9.27345 9.82995
upperback -3.36844 13.3284 -2.82347
thorax -5.09626 6.20976 -9.69307
lowerneck 16.2003 23.7392 12.2477
upperneck -9.87362 32.911 -13.0689
head -1.33357 16.8259 -6.24095
rclavicle -2.1944e-014 2.98177e-014
rhumerus -42.522 16.8945 -97.8883
rradius 23.0405
rwrist 25.5472
rhand -11.903 -31.8159
rfingers 7.12502
rthumb 14.1505 -61.314
lclavicle -2.1944e-014 2.98177e-014
lhumerus -31.8172 15.8898 73.6871
lradius 20.6504
lwrist -16.1738
lhand -16.5149 18.4649
lfingers 7.12502
lthumb 9.70337 48.2214
rfemur -1.19128 -20.6795 29.6737
rtibia 20.058
rfoot -18.7944 -23.7034
rtoes -9.71878
lfemur -34.689 3.68603 -16.6033
ltibia 47.38
lfoot -4.19349 -2.76741
ltoes -18.9994
357
root -12.6211 17.9351 -2.06784 -181.65 117.437 -545.819
lowerback 7.66317 9.33181 9.40622
upperback -3.46437 13.3344 -2.92829
thorax -5.1036 6.22531 -9.53845
lowerneck 14.9751 23.8307 11.6803
upperneck -8.60915 32.9425 -11.7514
head -1.08627 16.7677 -5.65208
rclavicle 3.70361e-014 2.66371e-014
rhumerus -41.5763 16.9178 -96.9861
rradius 22.5858
rwrist 26.3249
rhand -10.8873 -32.0476
rfingers 7.12502
rthumb 15.129 -61.4746
lclavicle 3.70361e-014 2.66371e-014
lhumerus -33.2194 18.2968 70.5416
lradius 19.7069
lwrist -17.8834
lhand -15.9401 18.9327
lfingers 7.12502
lthumb 10.2579 48.6626
rfemur -0.716814 -20.7077 29.333
rtibia 19.8156
rfoot -18.6915 -24.3994
rtoes -10.073
lfemur -34.3522 5.87449 -18.3052
ltibia 46.6611
lfoot -7.36894 1.76769
ltoes -22.9076
358
root -12.5111 17.9343 -2.04073 -181.534 116.424 -545.687
lowerback 7.41359 9.36435 9.04874
upperback -3.56226 13.3202 -2.99249
thorax -5.13232 6.22696 -9.38278
lowerneck 14.649 23.8765 11.5416
upperneck -8.30523 32.982 -11.3944
head -1.02611 16.7679 -5.49644
rclavicle -3.97523e-014 1.07344e-014
rhumerus -40.4474 16.4069 -95.761
rradius 21.8413
rwrist 27.7714
rhand -11.4053 -32.2915
rfingers 7.12502
rthumb 14.6301 -61.7554
lclavicle -3.97523e-014 1.07344e-014
lhumerus -34.7521 20.5449 67.2377
lradius 18.8541
lwrist -19.9997
lhand -15.5024 18.8884
lfingers 7.12502
lthumb 10.6802 48.597
rfemur -0.23339 -20.6225 29.1139
rtibia 19.6014
rfoot -18.4357 -25.1601
rtoes -10.6537
lfemur -34.0373 8.15886 -19.9362
ltibia 45.95
lfoot -9.98595 5.84899
ltoes -21.6785
359
root -12.3919 17.9357 -2.01728 -181.546 115.478 -545.694
lowerback 7.12046 9.38371 8.75406
upperback -3.6581 13.2941 -3.02633
thorax -5.13062 6.22328 -9.21816
lowerneck 14.7489 23.9118 11.6312
upperneck -8.36888 33.0496 -11.453
head -1.02927 16.8037 -5.52726
rclavicle -1.94337e-013 -7.95139e-016
rhumerus -39.2365 15.5901 -94.3827
rradius 20.9112
rwrist 29.4749
rhand -13.4515 -32.6929
rfingers 7.12502
rthumb 12.6579 -62.2893
lclavicle -1.94337e-013 -7.95139e-016
lhumerus -36.372 22.2564 64.0475
lradius 18.1971
lwrist -21.9212
lhand -15.302 18.8297
lfingers 7.12502
lthumb 10.8734 48.5282
rfemur 0.203363 -20.4807 28.9255
rtibia 19.473
rfoot -17.7432 -26.0583
rtoes -12.7841
lfemur -33.7051 10.4472 -21.4855
ltibia 45.2124
lfoot -12.2737 9.21252
ltoes -19.4
360
root -12.2639 17.9299 -1.99985 -181.542 114.449 -545.631
lowerback 6.79765 9.35763 8.48103
upperback -3.71969 13.2069 -3.05765
thorax -5.0835 6.19302 -9.05045
lowerneck 15.1985 23.8695 11.7417
upperneck -8.87218 33.0181 -11.7992
head -1.17313 16.805 -5.71401
rclavicle -1.26138e-013 6.75868e-015
rhumerus -38.0119 14.3666 -92.8235
rradius 20.1309
rwrist 31.0439
rhand -15.077 -33.215
rfingers 7.12502
rthumb 11.0905 -62.902
lclavicle -1.26138e-013 6.75868e-015
lhumerus -37.9957 23.0692 61.2998
lradius 17.8634
lwrist -23.1756
lhand -15.3572 18.9571
lfingers 7.12502
lthumb 10.8202 48.6584
rfemur 0.612185 -20.4312 28.6424
rtibia 19.4565
rfoot -16.4813 -27.1773
rtoes -16.5862
lfemur -33.2473 12.5716 -23.0416
ltibia 44.4543
lfoot -13.6963 11.505
ltoes -15.5315
